<?xml version="1.0" encoding="UTF-8"?>
<svg id="Layer_1" xmlns="http://www.w3.org/2000/svg" version="1.1" viewBox="0 0 1080 1080">
  <!-- Generator: Adobe Illustrator 29.5.0, SVG Export Plug-In . SVG Version: 2.1.0 Build 137)  -->
  <defs>
    <style>
      .st0 {
        font-family: RobotoCondensed-Bold, 'Roboto Condensed';
        font-size: 44.77px;
        font-weight: 700;
        letter-spacing: -.02em;
      }

      .st0, .st1 {
        fill: #3da3dc;
      }

      .st2 {
        fill: #02577a;
      }
    </style>
  </defs>
  <path class="st2" d="M32.45,604.97H0v-160.72h32.45v160.72Z"/>
  <path class="st2" d="M86.76,485.53l.88,11.81c7.06-9.34,16.3-14.02,27.71-14.02,20.53,0,31.09,14.39,31.68,43.16v78.49h-31.35v-76.17c0-6.77-1.01-11.68-3.04-14.74-2.02-3.05-5.57-4.58-10.65-4.58-5.67,0-10.08,2.91-13.25,8.72v86.76h-31.35v-119.44h29.36Z"/>
  <path class="st2" d="M198.03,485.53l.88,11.81c7.06-9.34,16.3-14.02,27.71-14.02,20.53,0,31.09,14.39,31.68,43.16v78.49h-31.35v-76.17c0-6.77-1.01-11.68-3.04-14.74-2.02-3.05-5.57-4.58-10.65-4.58-5.67,0-10.08,2.91-13.25,8.72v86.76h-31.35v-119.44h29.36Z"/>
  <path class="st2" d="M277.06,541.38c0-18.1,4.27-32.31,12.8-42.61,8.54-10.3,20.35-15.45,35.43-15.45s27.12,5.15,35.65,15.45c8.54,10.3,12.8,24.58,12.8,42.83v7.62c0,18.18-4.23,32.38-12.69,42.61-8.46,10.23-20.31,15.34-35.55,15.34s-27.21-5.13-35.71-15.4c-8.5-10.26-12.75-24.52-12.75-42.77v-7.62ZM308.41,549.22c0,21.34,5.7,32.01,17.11,32.01,10.52,0,16.19-8.9,17-26.71l.11-13.14c0-10.89-1.51-18.97-4.53-24.23-3.02-5.26-7.29-7.89-12.8-7.89s-9.44,2.63-12.42,7.89c-2.98,5.26-4.47,13.34-4.47,24.23v7.84Z"/>
  <path class="st2" d="M658.33,604.97c-.88-1.84-1.77-4.93-2.65-9.27-5.59,7.65-13.17,11.48-22.74,11.48s-18.31-3.31-24.89-9.93c-6.59-6.62-9.88-15.2-9.88-25.72,0-12.51,3.99-22.19,11.98-29.03,7.98-6.84,19.48-10.34,34.49-10.49h9.5v-9.6c0-5.37-.92-9.16-2.76-11.37-1.84-2.21-4.53-3.31-8.06-3.31-7.8,0-11.7,4.56-11.7,13.69h-31.24c0-11.04,4.14-20.15,12.42-27.32,8.28-7.18,18.75-10.76,31.4-10.76s23.24,3.41,30.41,10.21c7.18,6.81,10.76,16.54,10.76,29.2v56.19c.15,10.3,1.62,18.36,4.42,24.18v1.88h-31.46ZM639.9,582.67c3.46,0,6.4-.7,8.83-2.1,2.43-1.4,4.23-3.05,5.41-4.97v-24.84h-7.51c-5.3,0-9.48,1.69-12.53,5.08-3.06,3.38-4.58,7.91-4.58,13.58,0,8.83,3.46,13.25,10.38,13.25Z"/>
  <path class="st2" d="M760.88,572.95c0-2.65-1.27-5.1-3.81-7.34-2.54-2.24-8.19-5.28-16.94-9.11-12.88-5.22-21.73-10.63-26.55-16.23-4.82-5.59-7.23-12.55-7.23-20.86,0-10.45,3.77-19.08,11.31-25.88,7.54-6.8,17.53-10.21,29.97-10.21,13.1,0,23.59,3.39,31.46,10.16,7.87,6.77,11.81,15.86,11.81,27.26h-31.24c0-9.71-4.05-14.57-12.14-14.57-3.31,0-6.03,1.03-8.17,3.09-2.14,2.06-3.2,4.93-3.2,8.61,0,2.65,1.18,4.99,3.53,7.01,2.35,2.03,7.91,4.91,16.67,8.66,12.73,4.71,21.73,9.96,26.99,15.73,5.26,5.78,7.89,13.26,7.89,22.46,0,10.67-4.01,19.24-12.03,25.72-8.02,6.48-18.54,9.71-31.57,9.71-8.76,0-16.49-1.71-23.18-5.13-6.7-3.42-11.94-8.19-15.73-14.3-3.79-6.11-5.69-12.7-5.69-19.76h29.69c.15,5.45,1.41,9.53,3.81,12.25,2.39,2.72,6.31,4.08,11.76,4.08,8.39,0,12.58-3.79,12.58-11.37Z"/>
  <rect class="st2" x="812.1" y="485.53" width="31.35" height="119.44"/>
  <path class="st2" d="M863.98,541.38c0-18.1,4.27-32.31,12.8-42.61,8.54-10.3,20.35-15.45,35.43-15.45s27.12,5.15,35.65,15.45c8.54,10.3,12.8,24.58,12.8,42.83v7.62c0,18.18-4.23,32.38-12.69,42.61-8.46,10.23-20.31,15.34-35.55,15.34s-27.21-5.13-35.71-15.4c-8.5-10.26-12.75-24.52-12.75-42.77v-7.62ZM895.33,549.22c0,21.34,5.7,32.01,17.11,32.01,10.52,0,16.19-8.9,17-26.71l.11-13.14c0-10.89-1.51-18.97-4.52-24.23-3.02-5.26-7.29-7.89-12.8-7.89s-9.44,2.63-12.42,7.89c-2.98,5.26-4.47,13.34-4.47,24.23v7.84Z"/>
  <path class="st2" d="M1008.69,485.53l.88,11.81c7.06-9.34,16.3-14.02,27.71-14.02,20.53,0,31.09,14.39,31.68,43.16v78.49h-31.35v-76.17c0-6.77-1.01-11.68-3.04-14.74-2.02-3.05-5.57-4.58-10.65-4.58-5.67,0-10.08,2.91-13.25,8.72v86.76h-31.35v-119.44h29.36Z"/>
  <g>
    <path class="st1" d="M485.58,631.76l38.61-77.83h29.91l-57.84,104.38h-22.28l-57.68-104.38h29.91l39.37,77.83Z"/>
    <path class="st1" d="M446.21,523.04h-29.91l57.68-104.38h22.28l57.84,104.38h-29.91l-38.61-77.83-39.37,77.83Z"/>
  </g>
  <text class="st0" transform="translate(798.12 666.67)"><tspan x="0" y="0">Digital Solutions</tspan></text>
  <path class="st2" d="M824.43,401.36c19.44-2.21,34.2,18.23,26.98,38.82-2.49,7.11-7.81,12.72-9.05,20.41-.79,4.92.15,12.2-5.34,13.94-5.72-.36-12.42.75-18.02.08-5.73-.69-5.14-9.08-5.87-13.68-1.52-9.63-8.94-16.3-10.5-26.42-2.4-15.57,7.57-31.54,21.8-33.16Z"/>
</svg>